CalSansText-SemiBold.ufo
<glyph name="four" format="2">
  <advance width="592.525"/>
  <unicode hex="0034"/>
  <outline>
    <contour>
      <point x="334.95" y="0.0" type="line"/>
      <point x="453.70000000000005" y="0.0" type="line"/>
      <point x="453.70000000000005" y="704.225" type="line"/>
      <point x="370.625" y="704.225" type="line"/>
      <point x="23.924999999999997" y="237.675" type="line"/>
      <point x="23.924999999999997" y="198.52499999999998" type="line"/>
      <point x="534.675" y="198.52499999999998" type="line"/>
      <point x="534.675" y="298.825" type="line"/>
      <point x="177.05" y="298.825" type="line"/>
      <point x="177.05" y="299.825" type="line"/>
      <point x="185.675" y="304.775"/>
      <point x="193.29999999999998" y="311.075"/>
      <point x="199.625" y="320.05" type="curve" smooth="yes"/>
      <point x="300.35" y="457.25" type="line" smooth="yes"/>
      <point x="320.0" y="484.2"/>
      <point x="333.975" y="516.85"/>
      <point x="337.925" y="531.45" type="curve"/>
      <point x="339.925" y="531.45" type="line"/>
      <point x="337.925" y="520.125"/>
      <point x="335.6" y="467.25"/>
      <point x="335.275" y="420.75" type="curve"/>
    </contour>
  </outline>
</glyph>
<glyph name="less" format="2">
  <advance width="596.0"/>
  <unicode hex="003C"/>
  <outline>
    <contour>
      <point x="362.75" y="70.0" type="line"/>
      <point x="511.6" y="70.0" type="line"/>
      <point x="251.60000000000002" y="312.0" type="line"/>
      <point x="251.60000000000002" y="317.0" type="line"/>
      <point x="511.6" y="550.0" type="line"/>
      <point x="362.75" y="550.0" type="line"/>
      <point x="99.75" y="310.0" type="line"/>
    </contour>
  </outline>
</glyph>
<glyph name="equal" format="2">
  <advance width="596.0"/>
  <unicode hex="003D"/>
  <outline>
    <contour>
      <point x="70.52499999999999" y="371.55" type="line"/>
      <point x="516.025" y="371.55" type="line"/>
      <point x="516.025" y="469.2" type="line"/>
      <point x="70.52499999999999" y="469.2" type="line"/>
    </contour>
    <contour>
      <point x="70.52499999999999" y="162.77499999999998" type="line"/>
      <point x="516.025" y="162.77499999999998" type="line"/>
      <point x="516.025" y="260.425" type="line"/>
      <point x="70.52499999999999" y="260.425" type="line"/>
    </contour>
  </outline>
</glyph>
<glyph name="A" format="2">
  <advance width="707.175"/>
  <unicode hex="0041"/>
  <anchor x="359.075" y="0.0" name="bottom"/>
  <anchor x="561.625" y="0.0" name="ogonek"/>
  <anchor x="353.75" y="700.0" name="top"/>
  <anchor x="353.75" y="619.0" name="top_ring"/>
  <outline>
    <contour>
      <point x="11.65" y="0.0" type="line"/>
      <point x="146.225" y="0.0" type="line"/>
      <point x="208.775" y="169.575" type="line"/>
      <point x="222.8" y="207.32500000000002" type="line"/>
      <point x="316.45" y="450.725" type="line" smooth="yes"/>
      <point x="335.075" y="498.35"/>
      <point x="343.425" y="531.425"/>
      <point x="349.4" y="552.725" type="curve"/>
      <point x="356.425" y="552.725" type="line"/>
      <point x="362.4" y="531.425"/>
      <point x="372.1" y="498.675"/>
      <point x="390.725" y="450.725" type="curve" smooth="yes"/>
      <point x="484.05" y="207.32500000000002" type="line"/>
      <point x="498.07500000000005" y="169.575" type="line"/>
      <point x="561.625" y="0.0" type="line"/>
      <point x="695.525" y="0.0" type="line"/>
      <point x="405.65000000000003" y="700.0" type="line"/>
      <point x="302.2" y="700.0" type="line"/>
    </contour>
    <contour>
      <point x="157.425" y="131.025" type="line"/>
      <point x="539.3499999999999" y="131.025" type="line"/>
      <point x="539.3499999999999" y="246.85000000000002" type="line"/>
      <point x="157.425" y="246.85000000000002" type="line"/>
    </contour>
  </outline>
</glyph>
<glyph name="H" format="2">
  <advance width="727.075"/>
  <unicode hex="0048"/>
  <anchor x="365.0" y="0.0" name="bottom"/>
  <anchor x="525.275" y="0.0" name="ogonek"/>
  <anchor x="365.0" y="700.0" name="top"/>
  <outline>
    <contour>
      <point x="80.64999999999999" y="0.0" type="line"/>
      <point x="201.79999999999998" y="0.0" type="line"/>
      <point x="201.79999999999998" y="305.075" type="line"/>
      <point x="525.275" y="305.075" type="line"/>
      <point x="525.275" y="0.0" type="line"/>
      <point x="646.4250000000001" y="0.0" type="line"/>
      <point x="646.4250000000001" y="700.0" type="line"/>
      <point x="525.275" y="700.0" type="line"/>
      <point x="525.275" y="420.9" type="line"/>
      <point x="201.79999999999998" y="420.9" type="line"/>
      <point x="201.79999999999998" y="700.0" type="line"/>
      <point x="80.64999999999999" y="700.0" type="line"/>
    </contour>
  </outline>
</glyph>
<glyph name="N" format="2">
  <advance width="769.1750000000001"/>
  <unicode hex="004E"/>
  <anchor x="391.75" y="0.0" name="bottom"/>
  <anchor x="672.75" y="0.0" name="ogonek"/>
  <anchor x="382.75" y="700.0" name="top"/>
  <outline>
    <contour>
      <point x="80.64999999999999" y="0.0" type="line"/>
      <point x="194.725" y="0.0" type="line"/>
      <point x="194.725" y="393.6" type="line" smooth="yes"/>
      <point x="194.725" y="447.875"/>
      <point x="192.725" y="486.2"/>
      <point x="188.72500000000002" y="517.975" type="curve"/>
      <point x="191.72500000000002" y="517.975" type="line"/>
      <point x="197.75" y="501.925"/>
      <point x="216.45000000000002" y="471.525"/>
      <point x="234.75" y="450.25" type="curve" smooth="yes"/>
      <point x="604.3499999999999" y="0.0" type="line"/>
      <point x="688.525" y="0.0" type="line"/>
      <point x="688.525" y="700.0" type="line"/>
      <point x="574.45" y="700.0" type="line"/>
      <point x="574.45" y="319.8" type="line" smooth="yes"/>
      <point x="574.45" y="250.85000000000002"/>
      <point x="577.8" y="215.125"/>
      <point x="582.125" y="191.425" type="curve"/>
      <point x="578.125" y="191.425" type="line"/>
      <point x="572.1" y="208.14999999999998"/>
      <point x="552.125" y="243.175"/>
      <point x="534.475" y="263.8" type="curve" smooth="yes"/>
      <point x="176.25" y="700.0" type="line"/>
      <point x="80.64999999999999" y="700.0" type="line"/>
    </contour>
  </outline>
</glyph>
<glyph name="O" format="2">
  <advance width="788.8"/>
  <unicode hex="004F"/>
  <anchor x="390.0" y="0.0" name="bottom"/>
  <anchor x="383.0" y="338.0" name="center"/>
  <anchor x="488.7" y="0.0" name="ogonek"/>
  <anchor x="390.0" y="700.0" name="top"/>
  <anchor x="598.375" y="700.0" name="topright"/>
  <outline>
    <contour>
      <point x="394.4" y="-13.0" type="curve" smooth="yes"/>
      <point x="598.375" y="-13.0"/>
      <point x="747.125" y="144.6"/>
      <point x="747.125" y="349.325" type="curve" smooth="yes"/>
      <point x="747.125" y="555.375"/>
      <point x="598.375" y="713.0"/>
      <point x="394.4" y="713.0" type="curve" smooth="yes"/>
      <point x="190.425" y="713.0"/>
      <point x="41.675" y="554.725"/>
      <point x="41.675" y="349.0" type="curve" smooth="yes"/>
      <point x="41.675" y="143.95"/>
      <point x="190.425" y="-13.0"/>
    </contour>
    <contour>
      <point x="394.4" y="104.85" type="curve" smooth="yes"/>
      <point x="264.75" y="104.85"/>
      <point x="165.5" y="194.20000000000002"/>
      <point x="165.5" y="349.0" type="curve" smooth="yes"/>
      <point x="165.5" y="503.79999999999995"/>
      <point x="264.75" y="595.15"/>
      <point x="394.4" y="595.15" type="curve" smooth="yes"/>
      <point x="523.7" y="595.15"/>
      <point x="623.3" y="504.125"/>
      <point x="623.3" y="349.325" type="curve" smooth="yes"/>
      <point x="623.3" y="194.525"/>
      <point x="523.7" y="104.85"/>
    </contour>
  </outline>
</glyph>
<glyph name="V" format="2">
  <advance width="710.9000000000001"/>
  <unicode hex="0056"/>
  <anchor x="357.775" y="0.0" name="bottom"/>
  <anchor x="413.75" y="0.0" name="ogonek"/>
  <anchor x="357.775" y="700.0" name="top"/>
  <outline>
    <contour>
      <point x="298.825" y="0.0" type="line"/>
      <point x="413.75" y="0.0" type="line"/>
      <point x="697.25" y="700.0" type="line"/>
      <point x="559.775" y="700.0" type="line"/>
      <point x="388.075" y="239.075" type="line" smooth="yes"/>
      <point x="377.82500000000005" y="211.95"/>
      <point x="365.775" y="176.825"/>
      <point x="360.475" y="151.175" type="curve"/>
      <point x="353.45" y="151.175" type="line"/>
      <point x="348.15" y="176.825"/>
      <point x="335.1" y="212.925"/>
      <point x="325.175" y="239.075" type="curve" smooth="yes"/>
      <point x="153.475" y="700.0" type="line"/>
      <point x="13.649999999999999" y="700.0" type="line"/>
    </contour>
  </outline>
</glyph>
<glyph name="W" format="2">
  <advance width="1083.95"/>
  <unicode hex="0057"/>
  <anchor x="541.975" y="0.0" name="bottom"/>
  <anchor x="541.975" y="700.0" name="top"/>
  <outline>
    <contour>
      <point x="254.07500000000002" y="0.0" type="line"/>
      <point x="365.77500000000003" y="0.0" type="line"/>
      <point x="512.9749999999999" y="425.22499999999997" type="line" smooth="yes"/>
      <point x="531.6500000000001" y="478.225"/>
      <point x="534.975" y="503.92499999999995"/>
      <point x="539.3" y="530.25" type="curve"/>
      <point x="543.3" y="530.25" type="line"/>
      <point x="547.625" y="503.92499999999995"/>
      <point x="551.975" y="479.225"/>
      <point x="570.65" y="425.22499999999997" type="curve" smooth="yes"/>
      <point x="717.2" y="0.0" type="line"/>
      <point x="828.9000000000001" y="0.0" type="line"/>
      <point x="1060.3" y="700.0" type="line"/>
      <point x="923.05" y="700.0" type="line"/>
      <point x="798.7" y="274.425" type="line" smooth="yes"/>
      <point x="781.7" y="220.75"/>
      <point x="778.025" y="195.07500000000002"/>
      <point x="773.025" y="169.075" type="curve"/>
      <point x="769.0250000000001" y="169.075" type="line"/>
      <point x="764.0250000000001" y="195.07500000000002"/>
      <point x="761.025" y="220.42499999999998"/>
      <point x="742.3499999999999" y="274.425" type="curve" smooth="yes"/>
      <point x="599.45" y="700.0" type="line"/>
      <point x="486.775" y="700.0" type="line"/>
      <point x="341.6" y="274.425" type="line" smooth="yes"/>
      <point x="324.27500000000003" y="220.75"/>
      <point x="319.925" y="195.07500000000002"/>
      <point x="314.925" y="169.075" type="curve"/>
      <point x="310.925" y="169.075" type="line"/>
      <point x="305.925" y="195.07500000000002"/>
      <point x="300.575" y="219.75"/>
      <point x="284.92499999999995" y="274.425" type="curve" smooth="yes"/>
      <point x="162.2" y="700.0" type="line"/>
      <point x="23.65" y="700.0" type="line"/>
    </contour>
  </outline>
</glyph>
<glyph name="bracketleft" format="2">
  <advance width="339.475"/>
  <unicode hex="005B"/>
  <outline>
    <contour>
      <point x="84.35000000000001" y="-220.0" type="line"/>
      <point x="281.1" y="-220.0" type="line"/>
      <point x="281.1" y="-129.25" type="line"/>
      <point x="192.85" y="-129.25" type="line"/>
      <point x="192.85" y="649.25" type="line"/>
      <point x="281.1" y="649.25" type="line"/>
      <point x="281.1" y="740.0" type="line"/>
      <point x="84.35000000000001" y="740.0" type="line"/>
    </contour>
  </outline>
</glyph>
<glyph name="backslash" format="2">
  <advance width="508.82500000000005"/>
  <unicode hex="005C"/>
  <outline>
    <contour>
      <point x="332.6" y="-13.0" type="line"/>
      <point x="456.55" y="-13.0" type="line"/>
      <point x="183.225" y="740.0" type="line"/>
      <point x="57.275" y="740.0" type="line"/>
    </contour>
  </outline>
</glyph>
<glyph name="m" format="2">
  <advance width="913.0999999999999"/>
  <unicode hex="006D"/>
  <anchor x="460.625" y="0.0" name="bottom"/>
  <anchor x="730.325" y="0.0" name="ogonek"/>
  <anchor x="465.92499999999995" y="500.125" name="top"/>
  <outline>
    <contour>
      <point x="70.65" y="0.0" type="line"/>
      <point x="187.77499999999998" y="0.0" type="line"/>
      <point x="187.77499999999998" y="295.525" type="line" smooth="yes"/>
      <point x="187.77499999999998" y="364.8"/>
      <point x="229.35" y="408.75"/>
      <point x="294.875" y="408.75" type="curve" smooth="yes"/>
      <point x="365.35" y="408.75"/>
      <point x="404.35" y="364.8"/>
      <point x="404.35" y="295.525" type="curve" smooth="yes"/>
      <point x="404.35" y="0.0" type="line"/>
      <point x="521.4749999999999" y="0.0" type="line"/>
      <point x="521.4749999999999" y="297.79999999999995" type="line" smooth="yes"/>
      <point x="521.4749999999999" y="365.775"/>
      <point x="562.05" y="408.75"/>
      <point x="626.575" y="408.75" type="curve" smooth="yes"/>
      <point x="690.425" y="408.75"/>
      <point x="730.325" y="364.8"/>
      <point x="730.325" y="295.525" type="curve" smooth="yes"/>
      <point x="730.325" y="0.0" type="line"/>
      <point x="847.45" y="0.0" type="line"/>
      <point x="847.45" y="323.975" type="line" smooth="yes"/>
      <point x="847.45" y="431.725"/>
      <point x="766.45" y="513.125"/>
      <point x="658.8" y="513.125" type="curve" smooth="yes"/>
      <point x="585.525" y="513.125"/>
      <point x="520.85" y="479.79999999999995"/>
      <point x="491.75" y="427.475" type="curve"/>
      <point x="485.75" y="427.475" type="line"/>
      <point x="459.375" y="479.79999999999995"/>
      <point x="401.7" y="513.125"/>
      <point x="335.1" y="513.125" type="curve" smooth="yes"/>
      <point x="274.8" y="513.125"/>
      <point x="217.8" y="482.45"/>
      <point x="189.775" y="432.775" type="curve"/>
      <point x="183.775" y="432.775" type="line"/>
      <point x="183.775" y="500.125" type="line"/>
      <point x="70.65" y="500.125" type="line"/>
    </contour>
  </outline>
</glyph>
<glyph name="y" format="2">
  <advance width="564.35"/>
  <unicode hex="0079"/>
  <anchor x="431.32500000000005" y="0.0" name="bottom"/>
  <anchor x="165.325" y="-213.0" name="ogonek"/>
  <anchor x="284.32500000000005" y="500.125" name="top"/>
  <anchor x="285.325" y="439.125" name="top_hook"/>
  <outline>
    <contour>
      <point x="87.775" y="-223.0" type="curve" smooth="yes"/>
      <point x="188.47500000000002" y="-223.0"/>
      <point x="263.575" y="-188.5"/>
      <point x="320.275" y="-53.425" type="curve" smooth="yes"/>
      <point x="554.225" y="500.125" type="line"/>
      <point x="418.67500000000007" y="500.125" type="line"/>
      <point x="316.225" y="203.025" type="line" smooth="yes"/>
      <point x="307.925" y="179.425"/>
      <point x="293.65" y="139.55"/>
      <point x="287.675" y="106.925" type="curve"/>
      <point x="282.025" y="106.925" type="line"/>
      <point x="276.05" y="139.55"/>
      <point x="260.8" y="179.75"/>
      <point x="252.5" y="203.025" type="curve" smooth="yes"/>
      <point x="149.725" y="500.125" type="line"/>
      <point x="12.15" y="500.125" type="line"/>
      <point x="211.72500000000002" y="13.925000000000004" type="line"/>
      <point x="196.45" y="-22.575" type="line" smooth="yes"/>
      <point x="171.175" y="-83.07499999999999"/>
      <point x="135.875" y="-109.19999999999999"/>
      <point x="87.125" y="-109.19999999999999" type="curve" smooth="yes"/>
      <point x="64.475" y="-109.19999999999999"/>
      <point x="48.5" y="-106.875"/>
      <point x="28.174999999999997" y="-100.55" type="curve"/>
      <point x="10.125" y="-212.35" type="line"/>
      <point x="35.175" y="-219.35"/>
      <point x="58.824999999999996" y="-223.0"/>
    </contour>
  </outline>
</glyph>
<glyph name="registered" format="2">
  <advance width="593.6999999999999"/>
  <unicode hex="00AE"/>
  <outline>
    <contour>
      <point x="296.35" y="230.0" type="curve" smooth="yes"/>
      <point x="434.35" y="230.0"/>
      <point x="544.1" y="341.0"/>
      <point x="544.1" y="479.0" type="curve" smooth="yes"/>
      <point x="544.1" y="617.0"/>
      <point x="434.35" y="727.0"/>
      <point x="296.35" y="727.0" type="curve" smooth="yes"/>
      <point x="159.35" y="727.0"/>
      <point x="49.599999999999994" y="617.0"/>
      <point x="49.599999999999994" y="479.0" type="curve" smooth="yes"/>
      <point x="49.599999999999994" y="341.0"/>
      <point x="159.35" y="230.0"/>
    </contour>
    <contour>
      <point x="296.35" y="284.175" type="curve" smooth="yes"/>
      <point x="190.45" y="284.175"/>
      <point x="107.125" y="372.1"/>
      <point x="107.125" y="479.0" type="curve" smooth="yes"/>
      <point x="107.125" y="584.9"/>
      <point x="190.45" y="672.825"/>
      <point x="296.35" y="672.825" type="curve" smooth="yes"/>
      <point x="403.25" y="672.825"/>
      <point x="486.57500000000005" y="584.9"/>
      <point x="486.57500000000005" y="479.0" type="curve" smooth="yes"/>
      <point x="486.57500000000005" y="372.1"/>
      <point x="403.25" y="284.175"/>
    </contour>
    <contour>
      <point x="203.275" y="350.0" type="line"/>
      <point x="251.775" y="350.0" type="line"/>
      <point x="251.775" y="454.575" type="line"/>
      <point x="279.025" y="454.575" type="line"/>
      <point x="283.0" y="445.925"/>
      <point x="285.65" y="440.275"/>
      <point x="289.65" y="434.275" type="curve" smooth="yes"/>
      <point x="346.3" y="350.0" type="line"/>
      <point x="402.82500000000005" y="350.0" type="line"/>
      <point x="329.85" y="458.25" type="line"/>
      <point x="369.2" y="465.625"/>
      <point x="395.1" y="491.29999999999995"/>
      <point x="395.1" y="533.275" type="curve" smooth="yes"/>
      <point x="395.1" y="582.95"/>
      <point x="357.475" y="610.3249999999999"/>
      <point x="301.75" y="610.3249999999999" type="curve" smooth="yes"/>
      <point x="203.275" y="610.3249999999999" type="line"/>
    </contour>
    <contour>
      <point x="251.775" y="496.725" type="line"/>
      <point x="251.775" y="567.825" type="line"/>
      <point x="295.725" y="567.825" type="line" smooth="yes"/>
      <point x="325.975" y="567.825"/>
      <point x="344.575" y="557.5"/>
      <point x="344.575" y="532.5999999999999" type="curve" smooth="yes"/>
      <point x="344.575" y="507.05"/>
      <point x="325.975" y="496.725"/>
      <point x="295.725" y="496.725" type="curve" smooth="yes"/>
    </contour>
  </outline>
</glyph>
<glyph name="hookabovecomb" format="2">
  <unicode hex="0309"/>
  <anchor x="0.0" y="500.125" name="_top"/>
  <anchor x="0.0" y="691.0250000000001" name="top"/>
  <outline>
    <contour>
      <point x="-31.700000000000003" y="548.775" type="curve"/>
      <point x="37.8" y="548.775" type="line"/>
      <point x="60.825" y="563.1"/>
      <point x="72.525" y="590.475"/>
      <point x="72.525" y="621.2249999999999" type="curve" smooth="yes"/>
      <point x="72.525" y="670.95"/>
      <point x="31.375" y="711.65"/>
      <point x="-32.95" y="711.65" type="curve" smooth="yes"/>
      <point x="-65.7" y="711.65"/>
      <point x="-95.05000000000001" y="703.975"/>
      <point x="-119.425" y="684.625" type="curve"/>
      <point x="-81.35" y="623.1" type="line"/>
      <point x="-67.65" y="632.1"/>
      <point x="-55.0" y="637.75"/>
      <point x="-34.325" y="637.75" type="curve" smooth="yes"/>
      <point x="-12.375" y="637.75"/>
      <point x="10.0" y="625.1"/>
      <point x="10.0" y="601.75" type="curve" smooth="yes"/>
      <point x="10.0" y="582.125"/>
      <point x="-2.65" y="563.8"/>
    </contour>
  </outline>
</glyph>
<glyph name="hungarumlautcomb" format="2">
  <unicode hex="030B"/>
  <anchor x="0.0" y="500.125" name="_top"/>
  <anchor x="0.675" y="683.5" name="top"/>
  <outline>
    <contour>
      <point x="48.400000000000006" y="553.075" type="line"/>
      <point x="103.6" y="553.075" type="line"/>
      <point x="199.875" y="712.075" type="line"/>
      <point x="77.35" y="712.075" type="line"/>
    </contour>
    <contour>
      <point x="-103.6" y="553.075" type="line"/>
      <point x="-48.400000000000006" y="553.075" type="line"/>
      <point x="47.875" y="712.075" type="line"/>
      <point x="-74.65" y="712.075" type="line"/>
    </contour>
  </outline>
</glyph>
<glyph name="brevebelowcomb" format="2">
  <unicode hex="032E"/>
  <anchor x="0.0" y="0.0" name="_bottom"/>
  <outline>
    <contour>
      <point x="0.0" y="-220.0" type="curve" smooth="yes"/>
      <point x="92.825" y="-220.0"/>
      <point x="151.875" y="-158.675"/>
      <point x="151.875" y="-70.925" type="curve"/>
      <point x="63.9" y="-70.925" type="line"/>
      <point x="65.225" y="-117.625"/>
      <point x="42.875" y="-153.475"/>
      <point x="0.0" y="-153.475" type="curve" smooth="yes"/>
      <point x="-41.9" y="-153.475"/>
      <point x="-65.225" y="-117.625"/>
      <point x="-63.9" y="-70.925" type="curve"/>
      <point x="-151.875" y="-70.925" type="line"/>
      <point x="-151.875" y="-158.675"/>
      <point x="-92.15" y="-220.0"/>
    </contour>
  </outline>
</glyph>
<glyph name="rupeeIndian" format="2">
  <advance width="629.5999999999999"/>
  <unicode hex="20B9"/>
  <outline>
    <contour>
      <point x="349.45" y="23.25" type="line"/>
      <point x="493.65" y="23.25" type="line"/>
      <point x="273.8" y="289.05" type="line"/>
      <point x="269.5" y="247.625" type="line"/>
      <point x="402.85" y="258.725"/>
      <point x="494.375" y="334.85"/>
      <point x="494.375" y="457.47499999999997" type="curve" smooth="yes"/>
      <point x="494.375" y="586.1"/>
      <point x="394.475" y="670.0"/>
      <point x="255.325" y="670.0" type="curve" smooth="yes"/>
      <point x="33.9" y="670.0" type="line"/>
      <point x="33.9" y="554.175" type="line"/>
      <point x="237.25" y="554.175" type="line" smooth="yes"/>
      <point x="330.55" y="554.175"/>
      <point x="370.575" y="523.525"/>
      <point x="370.575" y="456.8" type="curve" smooth="yes"/>
      <point x="370.575" y="388.425"/>
      <point x="330.55" y="357.1"/>
      <point x="237.25" y="357.1" type="curve" smooth="yes"/>
      <point x="33.9" y="357.1" type="line"/>
      <point x="33.9" y="244.65" type="line"/>
      <point x="165.725" y="244.65" type="line"/>
    </contour>
    <contour>
      <point x="33.9" y="415.42499999999995" type="line"/>
      <point x="547.375" y="415.42499999999995" type="line"/>
      <point x="602.125" y="496.2" type="line"/>
      <point x="89.65" y="496.2" type="line"/>
    </contour>
    <contour>
      <point x="216.95" y="589.2249999999999" type="line"/>
      <point x="584.8" y="589.2249999999999" type="line"/>
      <point x="639.875" y="670.0" type="line"/>
      <point x="216.95" y="670.0" type="line"/>
    </contour>
  </outline>
</glyph>
<glyph name="ruble" format="2">
  <advance width="585.0250000000001"/>
  <unicode hex="20BD"/>
  <outline>
    <contour>
      <point x="80.64999999999999" y="30.0" type="line"/>
      <point x="201.79999999999998" y="30.0" type="line"/>
      <point x="201.79999999999998" y="251.47500000000002" type="line"/>
      <point x="319.5" y="251.47500000000002" type="line" smooth="yes"/>
      <point x="466.75" y="251.47500000000002"/>
      <point x="564.375" y="326.25"/>
      <point x="564.375" y="463.92499999999995" type="curve" smooth="yes"/>
      <point x="564.375" y="600.6"/>
      <point x="466.425" y="676.75"/>
      <point x="319.5" y="676.75" type="curve" smooth="yes"/>
      <point x="80.64999999999999" y="676.75" type="line"/>
    </contour>
    <contour>
      <point x="201.79999999999998" y="367.3" type="line"/>
      <point x="201.79999999999998" y="560.925" type="line"/>
      <point x="311.5" y="560.925" type="line" smooth="yes"/>
      <point x="392.05" y="560.925"/>
      <point x="440.9" y="530.95"/>
      <point x="440.9" y="463.25" type="curve" smooth="yes"/>
      <point x="440.9" y="394.225"/>
      <point x="392.05" y="367.3"/>
      <point x="311.5" y="367.3" type="curve" smooth="yes"/>
    </contour>
    <contour>
      <point x="20.0" y="251.47500000000002" type="line"/>
      <point x="183.0" y="251.47500000000002" type="line"/>
      <point x="183.0" y="332.25" type="line"/>
      <point x="20.0" y="332.25" type="line"/>
    </contour>
    <contour>
      <point x="20.0" y="116.975" type="line"/>
      <point x="455.0" y="116.975" type="line"/>
      <point x="454.0" y="197.75" type="line"/>
      <point x="20.0" y="197.75" type="line"/>
    </contour>
  </outline>
</glyph>
<glyph name="whiteCircle" format="2">
  <advance width="786.0"/>
  <unicode hex="25CB"/>
  <outline>
    <contour>
      <point x="394.0" y="-13.0" type="curve" smooth="yes"/>
      <point x="593.0" y="-13.0"/>
      <point x="756.0" y="149.0"/>
      <point x="756.0" y="350.0" type="curve" smooth="yes"/>
      <point x="756.0" y="549.0"/>
      <point x="593.0" y="713.0"/>
      <point x="394.0" y="713.0" type="curve" smooth="yes"/>
      <point x="194.0" y="713.0"/>
      <point x="30.0" y="549.0"/>
      <point x="30.0" y="350.0" type="curve" smooth="yes"/>
      <point x="30.0" y="149.0"/>
      <point x="194.0" y="-13.0"/>
    </contour>
    <contour>
      <point x="394.0" y="57.225" type="curve" smooth="yes"/>
      <point x="235.475" y="57.225"/>
      <point x="106.92500000000001" y="192.475"/>
      <point x="106.92500000000001" y="350.0" type="curve" smooth="yes"/>
      <point x="106.92500000000001" y="503.525"/>
      <point x="232.475" y="641.425"/>
      <point x="394.0" y="641.425" type="curve" smooth="yes"/>
      <point x="557.85" y="641.425"/>
      <point x="679.075" y="500.525"/>
      <point x="679.075" y="350.0" type="curve" smooth="yes"/>
      <point x="679.075" y="189.475"/>
      <point x="548.525" y="57.225"/>
    </contour>
  </outline>
</glyph>
<glyph name="heavyCheckMark" format="2">
  <advance width="600.0"/>
  <unicode hex="2714"/>
  <outline>
    <contour>
      <point x="190.55" y="165.125" type="curve" smooth="yes"/>
      <point x="213.55" y="146.125"/>
      <point x="241.525" y="130.075"/>
      <point x="285.975" y="165.775" type="curve" smooth="yes"/>
      <point x="361.675" y="226.7"/>
      <point x="491.575" y="460.725"/>
      <point x="536.0" y="571.25" type="curve" smooth="yes"/>
      <point x="547.7" y="601.75"/>
      <point x="515.25" y="619.525"/>
      <point x="497.825" y="593.725" type="curve" smooth="yes"/>
      <point x="403.82500000000005" y="448.725"/>
      <point x="322.35" y="324.825"/>
      <point x="272.35" y="266.825" type="curve" smooth="yes"/>
      <point x="258.35" y="250.82500000000002"/>
      <point x="246.675" y="252.475"/>
      <point x="229.35" y="267.825" type="curve" smooth="yes"/>
      <point x="194.425" y="298.475"/>
      <point x="168.2" y="332.625"/>
      <point x="142.22500000000002" y="379.7" type="curve" smooth="yes"/>
      <point x="127.22500000000001" y="406.45"/>
      <point x="97.45" y="402.1"/>
      <point x="77.0" y="369.0" type="curve" smooth="yes"/>
      <point x="62.575" y="346.6"/>
      <point x="58.525000000000006" y="314.175"/>
      <point x="68.55" y="298.125" type="curve" smooth="yes"/>
      <point x="93.55" y="254.125"/>
      <point x="143.55" y="204.125"/>
    </contour>
  </outline>
</glyph>
<glyph name="caroncomb.alt" format="2">
  <anchor x="37.0" y="740.0" name="_topright"/>
  <outline>
    <contour>
      <point x="11.0" y="529.5" type="line"/>
      <point x="92.975" y="529.5" type="line"/>
      <point x="187.4" y="740.0" type="line"/>
      <point x="61.0" y="740.0" type="line"/>
    </contour>
  </outline>
</glyph>
<glyph name="euro.ss10" format="2">
  <advance width="559.6"/>
  <outline>
    <contour>
      <point x="366.3" y="27.0" type="curve" smooth="yes"/>
      <point x="422.6" y="27.0"/>
      <point x="471.57500000000005" y="35.974999999999994"/>
      <point x="517.25" y="59.0" type="curve"/>
      <point x="526.625" y="196.55" type="line"/>
      <point x="483.275" y="160.85000000000002"/>
      <point x="432.25" y="144.85000000000002"/>
      <point x="368.625" y="144.85000000000002" type="curve" smooth="yes"/>
      <point x="286.9" y="144.85000000000002"/>
      <point x="204.05" y="173.375"/>
      <point x="177.125" y="277.5" type="curve"/>
      <point x="170.125" y="294.825" type="line"/>
      <point x="162.825" y="330.075"/>
      <point x="162.47500000000002" y="369.25"/>
      <point x="169.775" y="405.8" type="curve"/>
      <point x="176.45000000000002" y="422.45000000000005" type="line"/>
      <point x="202.70000000000002" y="525.5999999999999"/>
      <point x="281.575" y="555.15"/>
      <point x="366.3" y="555.15" type="curve" smooth="yes"/>
      <point x="428.3" y="555.15"/>
      <point x="482.95" y="537.45"/>
      <point x="527.25" y="493.4" type="curve"/>
      <point x="527.25" y="633.325" type="line"/>
      <point x="484.65000000000003" y="659.65"/>
      <point x="427.625" y="673.0"/>
      <point x="366.3" y="673.0" type="curve" smooth="yes"/>
      <point x="187.7" y="673.0"/>
      <point x="41.675" y="550.9749999999999"/>
      <point x="41.675" y="349.0" type="curve" smooth="yes"/>
      <point x="41.675" y="147.7"/>
      <point x="193.75" y="27.0"/>
    </contour>
    <contour>
      <point x="106.2" y="236.675" type="line"/>
      <point x="455.7" y="236.675" type="line"/>
      <point x="455.7" y="318.125" type="line"/>
      <point x="106.2" y="318.125" type="line"/>
    </contour>
    <contour>
      <point x="106.2" y="382.225" type="line"/>
      <point x="455.7" y="382.225" type="line"/>
      <point x="455.7" y="463.675" type="line"/>
      <point x="106.2" y="463.675" type="line"/>
    </contour>
  </outline>
</glyph>
<glyph name="euro.tf" format="2">
  <advance width="596.0"/>
  <outline>
    <contour>
      <point x="367.95" y="23.75" type="curve" smooth="yes"/>
      <point x="468.45000000000005" y="23.75"/>
      <point x="548.125" y="60.1"/>
      <point x="601.775" y="121.17500000000001" type="curve"/>
      <point x="509.925" y="196.14999999999998" type="line"/>
      <point x="471.32500000000005" y="152.125"/>
      <point x="425.125" y="134.9"/>
      <point x="371.6" y="134.9" type="curve" smooth="yes"/>
      <point x="282.975" y="134.9"/>
      <point x="210.10000000000002" y="181.425"/>
      <point x="188.72500000000002" y="290.425" type="curve" smooth="yes"/>
      <point x="184.70000000000002" y="308.725" type="line"/>
      <point x="179.35" y="343.325"/>
      <point x="178.35000000000002" y="357.3"/>
      <point x="183.7" y="391.9" type="curve"/>
      <point x="188.72500000000002" y="411.2" type="line" smooth="yes"/>
      <point x="211.1" y="522.475"/>
      <point x="282.975" y="565.1"/>
      <point x="368.275" y="565.1" type="curve" smooth="yes"/>
      <point x="420.05000000000007" y="565.1"/>
      <point x="469.25" y="551.475"/>
      <point x="517.425" y="506.5" type="curve"/>
      <point x="586.7" y="590.475" type="line"/>
      <point x="529.7750000000001" y="651.25"/>
      <point x="462.275" y="676.25"/>
      <point x="367.95" y="676.25" type="curve" smooth="yes"/>
      <point x="173.25" y="676.25"/>
      <point x="56.525000000000006" y="536.75"/>
      <point x="56.525000000000006" y="349.0" type="curve" smooth="yes"/>
      <point x="56.525000000000006" y="162.25"/>
      <point x="181.25" y="23.75"/>
    </contour>
    <contour>
      <point x="-39.175" y="238.95000000000002" type="line"/>
      <point x="363.075" y="238.95000000000002" type="line"/>
      <point x="408.125" y="319.725" type="line"/>
      <point x="15.9" y="319.725" type="line"/>
    </contour>
    <contour>
      <point x="-42.849999999999994" y="380.275" type="line"/>
      <point x="444.42499999999995" y="380.275" type="line"/>
      <point x="497.225" y="461.05" type="line"/>
      <point x="13.224999999999998" y="461.05" type="line"/>
    </contour>
  </outline>
</glyph>
<glyph name="f_f_i" format="2">
  <advance width="949.9749999999999"/>
  <anchor x="171.875" y="0.0" name="bottom_1"/>
  <anchor x="266.975" y="740.0" name="top_1"/>
  <anchor x="495.975" y="0.0" name="bottom_2"/>
  <anchor x="591.075" y="740.0" name="top_2"/>
  <anchor x="820.75" y="0.0" name="bottom_3"/>
  <anchor x="794.225" y="0.0" name="ogonek_3"/>
  <anchor x="820.75" y="500.125" name="top_3"/>
  <anchor x="384.525" y="0.0" name="caret_1"/>
  <anchor x="708.625" y="0.0" name="caret_2"/>
  <outline>
    <contour>
      <point x="349.1" y="395.725" type="line"/>
      <point x="868.975" y="395.725" type="line"/>
      <point x="878.975" y="500.125" type="line"/>
      <point x="349.1" y="500.125" type="line"/>
    </contour>
    <component base="f"/>
    <component base="f" xOffset="324.1"/>
    <component base="i" xOffset="691.2"/>
  </outline>
</glyph>
<glyph name="five.numr" format="2">
  <advance width="340.125"/>
  <outline>
    <contour>
      <point x="151.6" y="308.0" type="curve" smooth="yes"/>
      <point x="231.675" y="308.0"/>
      <point x="296.42499999999995" y="362.35"/>
      <point x="296.42499999999995" y="438.375" type="curve" smooth="yes"/>
      <point x="296.42499999999995" y="503.725"/>
      <point x="247.475" y="566.475"/>
      <point x="172.72500000000002" y="566.475" type="curve" smooth="yes"/>
      <point x="160.425" y="566.475"/>
      <point x="150.5" y="564.825"/>
      <point x="140.525" y="561.5" type="curve"/>
      <point x="139.2" y="562.5" type="line"/>
      <point x="162.175" y="670.55" type="line"/>
      <point x="115.7" y="634.45" type="line"/>
      <point x="268.7" y="634.45" type="line"/>
      <point x="268.7" y="700.0" type="line"/>
      <point x="96.3" y="700.0" type="line"/>
      <point x="46.575" y="472.0" type="line"/>
      <point x="80.57499999999999" y="491.975"/>
      <point x="105.65" y="500.95000000000005"/>
      <point x="148.6" y="500.95000000000005" type="curve" smooth="yes"/>
      <point x="193.925" y="500.95000000000005"/>
      <point x="220.8" y="475.65"/>
      <point x="220.8" y="437.725" type="curve" smooth="yes"/>
      <point x="220.8" y="399.525"/>
      <point x="191.575" y="374.90000000000003"/>
      <point x="151.925" y="374.90000000000003" type="curve" smooth="yes"/>
      <point x="117.975" y="374.90000000000003"/>
      <point x="96.025" y="387.2"/>
      <point x="71.7" y="412.17500000000007" type="curve"/>
      <point x="28.25" y="361.0" type="line"/>
      <point x="62.325" y="323.65"/>
      <point x="102.25" y="308.0"/>
    </contour>
  </outline>
</glyph>
<glyph name="four.numr" format="2">
  <advance width="334.025"/>
  <outline>
    <contour>
      <point x="182.7" y="314.34999999999997" type="line"/>
      <point x="255.6" y="314.34999999999997" type="line"/>
      <point x="255.6" y="422.95" type="line"/>
      <point x="299.25" y="422.95" type="line"/>
      <point x="299.25" y="486.8" type="line"/>
      <point x="255.6" y="486.8" type="line"/>
      <point x="255.6" y="707.35" type="line"/>
      <point x="194.65" y="707.35" type="line"/>
      <point x="6.9750000000000005" y="450.375" type="line"/>
      <point x="6.9750000000000005" y="422.95" type="line"/>
      <point x="182.7" y="422.95" type="line"/>
    </contour>
    <contour>
      <point x="111.25" y="486.8" type="line"/>
      <point x="111.25" y="487.8" type="line"/>
      <point x="112.22500000000001" y="488.775"/>
      <point x="114.55" y="489.75"/>
      <point x="115.875" y="492.075" type="curve" smooth="yes"/>
      <point x="170.375" y="565.825" type="line" smooth="yes"/>
      <point x="174.35000000000002" y="570.45"/>
      <point x="178.7" y="579.8"/>
      <point x="182.35" y="587.075" type="curve"/>
      <point x="184.7" y="587.075" type="line"/>
      <point x="183.7" y="582.1"/>
      <point x="183.02499999999998" y="572.75"/>
      <point x="183.02499999999998" y="566.775" type="curve" smooth="yes"/>
      <point x="183.02499999999998" y="486.8" type="line"/>
    </contour>
  </outline>
</glyph>
<glyph name="gravecomb.case" format="2">
  <anchor x="0.0" y="700.0" name="_top"/>
  <anchor x="0.0" y="816.75" name="top"/>
  <outline>
    <contour>
      <point x="16.85" y="740.0" type="line"/>
      <point x="0.6749999999999972" y="818.975" type="line"/>
      <point x="-109.45" y="855.7" type="line"/>
      <point x="-61.349999999999994" y="776.725" type="line"/>
    </contour>
  </outline>
</glyph>
<glyph name="macroncomb.case" format="2">
  <anchor x="0.0" y="700.0" name="_top"/>
  <anchor x="0.0" y="814.175" name="top"/>
  <outline>
    <contour>
      <point x="-137.39999999999998" y="740.0" type="line"/>
      <point x="137.725" y="740.0" type="line"/>
      <point x="137.725" y="817.65" type="line"/>
      <point x="-137.39999999999998" y="817.65" type="line"/>
    </contour>
  </outline>
</glyph>
<glyph name="nine.numr" format="2">
  <advance width="335.55"/>
  <outline>
    <contour>
      <point x="75.85" y="313.0" type="line"/>
      <point x="161.8" y="313.0" type="line"/>
      <point x="267.57500000000005" y="476.675" type="line" smooth="yes"/>
      <point x="287.57500000000005" y="506.65"/>
      <point x="300.175" y="538.95"/>
      <point x="300.175" y="575.6" type="curve" smooth="yes"/>
      <point x="300.175" y="654.95"/>
      <point x="240.8" y="706.0"/>
      <point x="162.75" y="706.0" type="curve" smooth="yes"/>
      <point x="83.94999999999999" y="706.0"/>
      <point x="23.95" y="655.25"/>
      <point x="23.95" y="575.275" type="curve" smooth="yes"/>
      <point x="23.95" y="484.025"/>
      <point x="96.4" y="437.92499999999995"/>
      <point x="166.14999999999998" y="454.475" type="curve"/>
    </contour>
    <contour>
      <point x="160.425" y="511.05" type="curve" smooth="yes"/>
      <point x="132.3" y="511.05"/>
      <point x="99.55" y="532.9000000000001"/>
      <point x="99.55" y="575.6" type="curve" smooth="yes"/>
      <point x="99.55" y="616.45"/>
      <point x="128.475" y="637.75"/>
      <point x="162.75" y="637.75" type="curve" smooth="yes"/>
      <point x="197.70000000000002" y="637.75"/>
      <point x="223.575" y="614.45"/>
      <point x="223.575" y="575.275" type="curve" smooth="yes"/>
      <point x="223.575" y="536.7"/>
      <point x="199.0" y="511.05"/>
    </contour>
  </outline>
</glyph>
<glyph name="t.ss10" format="2">
  <advance width="375.45000000000005"/>
  <anchor x="188.55" y="305.35" name="bar"/>
  <anchor x="184.625" y="0.0" name="bottom"/>
  <anchor x="185.975" y="276.0" name="center"/>
  <anchor x="184.625" y="610.0" name="top"/>
  <anchor x="298.1" y="740.0" name="topright"/>
  <outline>
    <contour>
      <point x="125.725" y="0.0" type="line"/>
      <point x="242.85" y="0.0" type="line"/>
      <point x="242.85" y="610.0" type="line"/>
      <point x="125.725" y="610.0" type="line"/>
    </contour>
    <contour>
      <point x="19.025" y="395.725" type="line"/>
      <point x="356.425" y="395.725" type="line"/>
      <point x="356.425" y="500.125" type="line"/>
      <point x="19.025" y="500.125" type="line"/>
    </contour>
  </outline>
</glyph>
<glyph name="two.numr" format="2">
  <advance width="339.85"/>
  <outline>
    <contour>
      <point x="24.95" y="314.34999999999997" type="line"/>
      <point x="295.8" y="314.34999999999997" type="line"/>
      <point x="295.8" y="380.225" type="line"/>
      <point x="160.075" y="379.90000000000003" type="line"/>
      <point x="160.075" y="380.9" type="line"/>
      <point x="166.45" y="383.57500000000005"/>
      <point x="185.625" y="404.125"/>
      <point x="190.625" y="410.8" type="curve" smooth="yes"/>
      <point x="253.95" y="488.8" type="line" smooth="yes"/>
      <point x="277.9" y="519.45"/>
      <point x="292.475" y="547.675"/>
      <point x="292.475" y="585.95" type="curve" smooth="yes"/>
      <point x="292.475" y="650.85"/>
      <point x="238.925" y="707.35"/>
      <point x="160.05" y="707.35" type="curve" smooth="yes"/>
      <point x="97.05" y="707.35"/>
      <point x="24.95" y="669.0250000000001"/>
      <point x="24.95" y="568.675" type="curve"/>
      <point x="101.225" y="568.675" type="line"/>
      <point x="101.225" y="616.75"/>
      <point x="122.69999999999999" y="638.775"/>
      <point x="159.725" y="638.775" type="curve" smooth="yes"/>
      <point x="196.60000000000002" y="638.775"/>
      <point x="216.89999999999998" y="613.9"/>
      <point x="216.89999999999998" y="581.9499999999999" type="curve" smooth="yes"/>
      <point x="216.89999999999998" y="554.025"/>
      <point x="195.57500000000002" y="526.7"/>
      <point x="177.625" y="504.425" type="curve" smooth="yes"/>
      <point x="24.95" y="328.675" type="line"/>
    </contour>
  </outline>
</glyph>
<glyph name="won.tf" format="2">
  <advance width="596.0"/>
  <outline>
    <contour>
      <point x="107.225" y="30.0" type="line"/>
      <point x="230.5" y="30.0" type="line"/>
      <point x="291.7" y="422.35" type="line" smooth="yes"/>
      <point x="301.35" y="483.7"/>
      <point x="302.0" y="514.375"/>
      <point x="303.325" y="545.05" type="curve"/>
      <point x="305.325" y="545.05" type="line"/>
      <point x="306.975" y="514.375"/>
      <point x="309.975" y="483.7"/>
      <point x="317.625" y="422.35" type="curve" smooth="yes"/>
      <point x="366.15" y="30.0" type="line"/>
      <point x="489.125" y="30.0" type="line"/>
      <point x="578.75" y="670.0" type="line"/>
      <point x="476.825" y="670.0" type="line"/>
      <point x="440.975" y="282.65" type="line" smooth="yes"/>
      <point x="435.0" y="217.3"/>
      <point x="435.35" y="175.625"/>
      <point x="433.67500000000007" y="143.95" type="curve"/>
      <point x="431.025" y="143.95" type="line"/>
      <point x="428.35" y="175.625"/>
      <point x="423.4" y="217.3"/>
      <point x="415.07500000000005" y="282.65" type="curve" smooth="yes"/>
      <point x="362.79999999999995" y="670.0" type="line"/>
      <point x="240.45000000000002" y="670.0" type="line"/>
      <point x="186.25" y="282.65" type="line" smooth="yes"/>
      <point x="177.275" y="217.3"/>
      <point x="171.65" y="175.625"/>
      <point x="168.325" y="143.95" type="curve"/>
      <point x="167.0" y="143.95" type="line"/>
      <point x="164.325" y="175.625"/>
      <point x="161.675" y="217.3"/>
      <point x="155.7" y="282.65" type="curve" smooth="yes"/>
      <point x="119.2" y="670.0" type="line"/>
      <point x="17.25" y="670.0" type="line"/>
    </contour>
    <contour>
      <point x="6.25" y="309.9" type="line"/>
      <point x="589.75" y="309.9" type="line"/>
      <point x="589.75" y="384.05" type="line"/>
      <point x="6.25" y="384.05" type="line"/>
    </contour>
  </outline>
</glyph>
